<?xml version="1.0"?>
<svg xmlns="http://www.w3.org/2000/svg" viewBox="0 0 240 100" width="720" height="300">
  <rect width="240" height="100" fill="#F4F29A"/>
  <g color="#0D7E6C"><defs>
    <radialGradient id="rg451911955" cx="32%" cy="28%" r="72%">
      <stop offset="0" stop-color="currentColor" stop-opacity="0.46"/>
      <stop offset="0.5" stop-color="currentColor" stop-opacity="0.18"/>
      <stop offset="1" stop-color="currentColor" stop-opacity="0"/>
    </radialGradient>
    <radialGradient id="rg2451911955" cx="70%" cy="75%" r="55%">
      <stop offset="0" stop-color="currentColor" stop-opacity="0.3"/>
      <stop offset="1" stop-color="currentColor" stop-opacity="0"/>
    </radialGradient>
    <linearGradient id="lg451911955" x1="0" y1="0" x2="1" y2="1">
      <stop offset="0" stop-color="currentColor" stop-opacity="0.36"/>
      <stop offset="0.55" stop-color="currentColor" stop-opacity="0.11"/>
      <stop offset="1" stop-color="currentColor" stop-opacity="0.04"/>
    </linearGradient>
    <linearGradient id="lgv451911955" x1="0" y1="0" x2="0" y2="1">
      <stop offset="0" stop-color="currentColor" stop-opacity="0.05"/>
      <stop offset="0.5" stop-color="currentColor" stop-opacity="0.18"/>
      <stop offset="1" stop-color="currentColor" stop-opacity="0.07"/>
    </linearGradient>
    <filter id="blur451911955" x="-50%" y="-50%" width="200%" height="200%">
      <feGaussianBlur stdDeviation="5.5"/>
    </filter>
    <filter id="soft451911955" x="-25%" y="-25%" width="150%" height="150%">
      <feGaussianBlur stdDeviation="1.4"/>
    </filter>
    <filter id="glow451911955" x="-60%" y="-60%" width="220%" height="220%">
      <feGaussianBlur stdDeviation="8"/>
    </filter>
  </defs><rect x="0" y="0" width="240" height="100" rx="0" fill="currentColor" opacity="0.04" /><rect x="-8.89" y="-8.89" width="21.92" height="21.92" rx="5.73" fill="currentColor" opacity="0.11" filter="url(#soft451911955)" /><rect x="50.37" y="-8.89" width="24.29" height="24.29" rx="5.73" fill="url(#lg451911955)" filter="url(#soft451911955)" /><rect x="109.62" y="-8.89" width="26.67" height="26.67" rx="5.73" fill="currentColor" opacity="0.18" filter="url(#soft451911955)" /><rect x="168.88" y="-8.89" width="25.48" height="25.48" rx="5.73" fill="url(#lg451911955)" filter="url(#soft451911955)" /><rect x="228.14" y="-8.89" width="24.29" height="24.29" rx="5.73" fill="currentColor" opacity="0.15" filter="url(#soft451911955)" /><rect x="20.74" y="20.74" width="24.29" height="24.29" rx="5.73" fill="url(#lg451911955)" filter="url(#soft451911955)" /><rect x="80" y="20.74" width="26.67" height="26.67" rx="5.73" fill="currentColor" opacity="0.15" filter="url(#soft451911955)" /><rect x="139.25" y="20.74" width="25.48" height="25.48" rx="5.73" fill="url(#lg451911955)" filter="url(#soft451911955)" /><rect x="198.51" y="20.74" width="24.29" height="24.29" rx="5.73" fill="currentColor" opacity="0.11" filter="url(#soft451911955)" /><rect x="257.76" y="20.74" width="26.67" height="26.67" rx="5.73" fill="url(#lg451911955)" filter="url(#soft451911955)" /><rect x="-8.89" y="50.37" width="24.29" height="24.29" rx="5.73" fill="url(#lg451911955)" filter="url(#soft451911955)" /><rect x="50.37" y="50.37" width="26.67" height="26.67" rx="5.73" fill="currentColor" opacity="0.11" filter="url(#soft451911955)" /><rect x="109.62" y="50.37" width="25.48" height="25.48" rx="5.73" fill="url(#lg451911955)" filter="url(#soft451911955)" /><rect x="168.88" y="50.37" width="24.29" height="24.29" rx="5.73" fill="currentColor" opacity="0.18" filter="url(#soft451911955)" /><rect x="228.14" y="50.37" width="26.67" height="26.67" rx="5.73" fill="url(#lg451911955)" filter="url(#soft451911955)" /><rect x="20.74" y="80" width="26.67" height="26.67" rx="5.73" fill="currentColor" opacity="0.18" filter="url(#soft451911955)" /><rect x="80" y="80" width="25.48" height="25.48" rx="5.73" fill="url(#lg451911955)" filter="url(#soft451911955)" /><rect x="139.25" y="80" width="24.29" height="24.29" rx="5.73" fill="currentColor" opacity="0.15" filter="url(#soft451911955)" /><rect x="198.51" y="80" width="26.67" height="26.67" rx="5.73" fill="url(#lg451911955)" filter="url(#soft451911955)" /><rect x="257.76" y="80" width="25.48" height="25.48" rx="5.73" fill="currentColor" opacity="0.11" filter="url(#soft451911955)" /><rect x="-8.89" y="109.62" width="26.67" height="26.67" rx="5.73" fill="currentColor" opacity="0.15" filter="url(#soft451911955)" /><rect x="50.37" y="109.62" width="25.48" height="25.48" rx="5.73" fill="url(#lg451911955)" filter="url(#soft451911955)" /><rect x="109.62" y="109.62" width="24.29" height="24.29" rx="5.73" fill="currentColor" opacity="0.11" filter="url(#soft451911955)" /><rect x="168.88" y="109.62" width="26.67" height="26.67" rx="5.73" fill="url(#lg451911955)" filter="url(#soft451911955)" /><rect x="228.14" y="109.62" width="25.48" height="25.48" rx="5.73" fill="currentColor" opacity="0.18" filter="url(#soft451911955)" /></g>
</svg>