<svg viewBox="0 0 193 48" fill="currentColor" xmlns="http://www.w3.org/2000/svg">
<path fill-rule="evenodd" clip-rule="evenodd" d="M167.278 31.8247C167.278 30.8818 167.278 30.4104 167.571 30.1175C167.864 29.8247 168.336 29.8247 169.278 29.8247H176.962C177.905 29.8247 178.377 29.8247 178.67 30.1175C178.962 30.4104 178.962 30.8818 178.962 31.8247V45.158C178.962 46.1008 178.962 46.5722 179.255 46.8651C179.548 47.158 180.02 47.158 180.962 47.158H190.506C191.449 47.158 191.92 47.158 192.213 46.8651C192.506 46.5722 192.506 46.1008 192.506 45.158V2.84216C192.506 1.89935 192.506 1.42795 192.213 1.13506C191.92 0.842163 191.449 0.842163 190.506 0.842163H180.962C180.02 0.842163 179.548 0.842163 179.255 1.13506C178.962 1.42795 178.962 1.89935 178.962 2.84216V16.0702C178.962 17.013 178.962 17.4844 178.67 17.7773C178.377 18.0702 177.905 18.0702 176.962 18.0702H169.278C168.336 18.0702 167.864 18.0702 167.571 17.7773C167.278 17.4844 167.278 17.013 167.278 16.0702V2.84216C167.278 1.89935 167.278 1.42795 166.985 1.13506C166.693 0.842163 166.221 0.842163 165.278 0.842163H155.699C154.756 0.842163 154.285 0.842163 153.992 1.13506C153.699 1.42795 153.699 1.89935 153.699 2.84216V5.0161C153.699 5.32791 153.699 5.48381 153.742 5.62465C153.784 5.76549 153.877 5.90706 154.065 6.19019C154.071 6.20023 154.078 6.21028 154.085 6.22034C155.821 8.82594 156.629 11.9383 156.629 15.4386C156.629 18.9428 155.821 22.0908 154.114 24.7892C154.049 24.8922 153.983 24.9943 153.917 25.0954C153.869 25.1682 153.845 25.2045 153.827 25.2361C153.753 25.3687 153.713 25.5013 153.702 25.6529C153.699 25.689 153.699 25.7281 153.699 25.8061V45.158C153.699 46.1008 153.699 46.5722 153.992 46.8651C154.285 47.158 154.756 47.158 155.699 47.158H165.278C166.221 47.158 166.693 47.158 166.985 46.8651C167.278 46.5722 167.278 46.1008 167.278 45.158V31.8247ZM153.699 15.4061C153.699 16.3062 154.432 16.3387 154.432 15.4386C154.432 15.4029 154.431 15.3673 154.431 15.3317C154.427 14.435 153.699 14.5094 153.699 15.4061Z"/>
<path d="M118.887 2.84216C118.887 1.89935 118.887 1.42795 119.18 1.13506C119.473 0.842163 119.944 0.842163 120.887 0.842163H138.291C138.475 0.842163 138.659 0.844132 138.841 0.848334C138.845 0.848425 138.849 0.84842 138.853 0.848513C141.648 0.914297 144.185 1.47374 146.466 2.52637C146.618 2.5951 146.768 2.66588 146.916 2.73881C148.743 3.63824 150.271 4.85753 151.501 6.39644C151.535 6.43986 151.57 6.48352 151.604 6.52746C151.606 6.52992 151.608 6.53241 151.61 6.53488C151.726 6.68447 151.839 6.83714 151.95 6.99261C151.969 7.01829 151.987 7.04404 152.005 7.06988C152.021 7.09304 152.037 7.11626 152.054 7.13955C152.062 7.1511 152.072 7.16553 152.08 7.17711C152.082 7.18108 152.089 7.1904 152.092 7.19438C152.093 7.19699 152.095 7.19963 152.097 7.20225C152.109 7.21982 152.121 7.23736 152.133 7.25501C152.135 7.25734 152.139 7.26341 152.14 7.26574C152.142 7.26837 152.144 7.27098 152.146 7.27361C152.181 7.32632 152.221 7.3853 152.256 7.43865C152.865 8.35211 153.346 9.35222 153.699 10.4389C154.187 11.9402 154.431 13.6068 154.431 15.4387C154.431 17.2706 154.187 18.957 153.699 20.4977C153.346 21.6128 152.865 22.6516 152.256 23.6141C152.166 23.7559 152.075 23.8959 151.982 24.0336C151.914 24.134 151.846 24.2334 151.776 24.3316C151.686 24.458 151.594 24.5825 151.501 24.7053C150.172 26.4534 148.494 27.844 146.466 28.8773C146.314 28.9533 146.161 29.0272 146.006 29.0985C143.846 30.0963 141.461 30.6283 138.853 30.6948C138.667 30.6995 138.479 30.7018 138.291 30.7018H134.466C133.523 30.7018 133.052 30.7018 132.759 30.9947C132.466 31.2876 132.466 31.759 132.466 32.7018V45.158C132.466 46.1008 132.466 46.5722 132.173 46.8651C131.88 47.158 131.409 47.158 130.466 47.158H120.887C119.944 47.158 119.473 47.158 119.18 46.8651C118.887 46.5722 118.887 46.1008 118.887 45.158V2.84216ZM132.466 18.1404C132.466 19.0832 132.466 19.5546 132.759 19.8475C133.052 20.1404 133.523 20.1404 134.466 20.1404H134.501C135.53 20.1404 136.443 20.0001 137.238 19.7194C138.057 19.4153 138.7 18.9474 139.168 18.3158C139.607 17.7018 139.839 16.9232 139.867 15.9802C139.869 15.9174 139.87 15.8538 139.87 15.7895C139.87 14.7603 139.636 13.9299 139.168 13.2983C138.7 12.6433 138.057 12.1638 137.238 11.8597C136.443 11.5556 135.53 11.4036 134.501 11.4036H134.466C133.523 11.4036 133.052 11.4036 132.759 11.6965C132.466 11.9894 132.466 12.4608 132.466 13.4036V18.1404Z"/>
<path fill-rule="evenodd" clip-rule="evenodd" d="M103.145 2.84216C103.145 1.89935 103.145 1.42795 103.438 1.13506C103.731 0.842163 104.202 0.842163 105.145 0.842163H114.724C115.667 0.842163 116.138 0.842163 116.431 1.13506C116.724 1.42795 116.724 1.89935 116.724 2.84216V45.158C116.724 46.1008 116.724 46.5722 116.431 46.8651C116.138 47.158 115.667 47.158 114.724 47.158H109.454C109.255 47.158 109.156 47.158 109.109 47.1536C108.666 47.1123 108.656 47.1066 108.394 46.7471C108.367 46.7095 108.233 46.4843 107.964 46.0339L103.426 38.4082C103.287 38.1733 103.217 38.0559 103.181 37.9257C103.145 37.7955 103.145 37.6588 103.145 37.3854V26.0011C103.145 25.7004 103.145 25.55 103.184 25.4141C103.224 25.2781 103.311 25.1389 103.487 24.8605C103.723 24.4854 103.948 24.0945 104.161 23.6888C105.365 21.4196 105.887 18.6231 105.887 15.4386C105.887 12.1444 105.216 9.17572 103.783 6.61242C103.68 6.42662 103.574 6.2438 103.465 6.06398C103.301 5.7924 103.219 5.65662 103.182 5.52468C103.145 5.39274 103.145 5.24752 103.145 4.95707V2.84216ZM105.12 45.5524C105.029 45.3995 104.984 45.323 104.96 45.2899C104.419 44.5293 103.224 44.8581 103.148 45.7882C103.145 45.8287 103.145 45.9177 103.145 46.0957C103.145 46.1535 103.145 46.1824 103.146 46.2069C103.171 46.7207 103.582 47.1316 104.096 47.1568C104.121 47.158 104.149 47.158 104.207 47.158C104.302 47.158 104.35 47.158 104.382 47.1558C105.099 47.1087 105.534 46.344 105.208 45.704C105.193 45.6748 105.169 45.634 105.12 45.5524ZM103.69 15.4387C103.69 15.4961 103.69 15.5533 103.689 15.6104C103.685 16.3133 103.145 16.2276 103.145 15.5247C103.145 14.8343 103.69 14.7482 103.69 15.4387Z"/>
<path d="M68.6016 2.84216C68.6016 1.89935 68.6016 1.42795 68.8945 1.13506C69.1873 0.842163 69.6588 0.842163 70.6016 0.842163H89.3735C89.5503 0.842163 89.7258 0.844496 89.9 0.849228C90.0005 0.851958 90.1005 0.855567 90.2001 0.859871C90.2611 0.862506 90.3219 0.865322 90.3826 0.868546C92.7785 0.995933 94.9216 1.58366 96.8121 2.63164C98.4669 3.53101 99.8451 4.73473 100.947 6.2427C101.278 6.69577 101.584 7.17626 101.865 7.68427C102.416 8.67097 102.843 9.74186 103.145 10.897C103.508 12.2886 103.689 13.8025 103.689 15.4387C103.689 17.2447 103.508 18.8433 103.145 20.2344C102.91 21.1314 102.601 21.9422 102.216 22.6667C102.156 22.7807 102.095 22.8929 102.033 23.0034C101.695 23.6118 101.332 24.1663 100.947 24.6667C100.282 25.529 99.5468 26.2308 98.7419 26.772C98.571 26.8869 98.4018 26.9967 98.2342 27.1012C97.9999 27.2473 97.7689 27.3833 97.5411 27.5092C96.3116 28.1884 95.6968 28.5281 95.586 28.937C95.4752 29.3459 95.7828 29.8627 96.398 30.8965L100.947 38.5401L103.145 42.2335L106.075 47.158L100.947 47.158L92.0371 47.158C91.4571 47.158 91.1671 47.158 90.9308 47.0174C90.6945 46.8768 90.5561 46.6219 90.2794 46.1122L82.2154 31.2593L81.5762 30.0817C81.4531 29.8549 81.6172 29.579 81.8752 29.579C82.0632 29.579 82.2156 29.7314 82.2155 29.9194L82.2154 31.2593L82.2156 45.1579C82.2156 46.1007 82.2156 46.5722 81.9227 46.8651C81.6298 47.158 81.1584 47.158 80.2156 47.158H70.6016C69.6588 47.158 69.1873 47.158 68.8945 46.8651C68.6016 46.5722 68.6016 46.1008 68.6016 45.158V2.84216ZM82.2156 18.386C82.2156 19.3288 82.2156 19.8002 82.5085 20.0931C82.8014 20.386 83.2728 20.386 84.2156 20.386H84.4612C85.701 20.386 86.8823 20.0936 88.0051 19.5088C89.008 18.9971 89.5721 18.0108 89.6975 16.5499C89.7064 16.4457 89.7134 16.339 89.7179 16.2299C89.7181 16.2253 89.7181 16.2207 89.7182 16.2161C89.7224 16.1112 89.7244 16.0041 89.7244 15.8948C89.7244 14.0702 89.1747 12.8656 88.0753 12.2808C86.9758 11.696 85.8062 11.4036 84.5665 11.4036H84.2156C83.2728 11.4036 82.8014 11.4036 82.5085 11.6965C82.2156 11.9894 82.2156 12.4608 82.2156 13.4036V18.386Z"/>
<path fill-rule="evenodd" clip-rule="evenodd" d="M35.4058 1.10368C35.4058 0.959246 35.5228 0.842163 35.6673 0.842163H64.4934C65.4362 0.842163 65.9076 0.842163 66.2005 1.13506C66.4934 1.42795 66.4934 1.89935 66.4934 2.84216V10.6317C66.4934 11.5745 66.4934 12.0459 66.2005 12.3388C65.9076 12.6317 65.4362 12.6317 64.4934 12.6317H50.9849C50.0421 12.6317 49.5706 12.6317 49.2778 12.9246C48.9849 13.2175 48.9849 13.6889 48.9849 14.6317V16.2457C48.9849 17.1885 48.9849 17.6599 49.2778 17.9528C49.5706 18.2457 50.0421 18.2457 50.9849 18.2457H64.4934C65.4362 18.2457 65.9076 18.2457 66.2005 18.5386C66.4934 18.8315 66.4934 19.3029 66.4934 20.2457V27.6492C66.4934 28.592 66.4934 29.0634 66.2005 29.3563C65.9076 29.6492 65.4362 29.6492 64.4934 29.6492H50.9849C50.0421 29.6492 49.5706 29.6492 49.2778 29.9421C48.9849 30.235 48.9849 30.7064 48.9849 31.6492V33.3685C48.9849 34.3113 48.9849 34.7827 49.2778 35.0756C49.5706 35.3685 50.0421 35.3685 50.9849 35.3685H64.4934C65.4362 35.3685 65.9076 35.3685 66.2005 35.6614C66.4934 35.9543 66.4934 36.4257 66.4934 37.3685V45.158C66.4934 46.1008 66.4934 46.5722 66.2005 46.8651C65.9076 47.158 65.4362 47.158 64.4934 47.158H37.4058C36.463 47.158 35.9915 47.158 35.6987 46.8651C35.4058 46.5722 35.4058 46.1008 35.4058 45.158V44.9805C35.4058 44.5992 35.4058 44.4085 35.4667 44.242C35.5276 44.0756 35.6632 43.9152 35.9343 43.5946C36.4905 42.9366 36.9917 42.2272 37.4363 41.467C38.6687 39.3777 39.2776 36.9599 39.3488 34.2915L39.3559 33.7542C39.3559 31.5831 39.0157 29.5606 38.2906 27.7205L38.1546 27.3871C37.5801 26.0188 36.8307 24.7642 35.9068 23.6309C35.65 23.3158 35.5216 23.1583 35.4637 22.9957C35.4058 22.833 35.4058 22.6479 35.4058 22.2777V11.4973C35.4058 11.2258 35.4058 11.09 35.4411 10.9607C35.4764 10.8313 35.5455 10.7144 35.6835 10.4806L38.5596 5.6086C39.1195 4.66005 38.8905 3.44365 38.0244 2.76314C37.5591 2.39732 36.6658 1.90559 35.5492 1.33721C35.4614 1.29249 35.4058 1.20225 35.4058 1.10368ZM35.4058 40.3124C35.4058 40.3878 35.5049 40.4154 35.5438 40.3509C36.5527 38.6404 37.0886 36.6011 37.1515 34.2328L37.158 33.7542C37.158 31.9341 36.8907 30.2886 36.3559 28.8181C36.3201 28.72 36.2837 28.6226 36.2457 28.5261C36.0511 28.0326 35.4058 28.188 35.4058 28.7185V40.3124ZM36.2686 4.22562C36.5029 4.36765 36.5606 4.67037 36.4213 4.9063C36.1411 5.38101 35.4058 5.19537 35.4058 4.64411C35.4058 4.23512 35.8429 3.97213 36.1945 4.18112C36.22 4.19629 36.2447 4.21112 36.2686 4.22562Z"/>
<path d="M20.386 0C20.573 0 20.7588 0.00164692 20.9432 0.00420345C23.7104 0.0425649 26.1799 0.368471 28.3509 0.982456C28.6346 1.05906 28.9116 1.13627 29.1819 1.21426C29.1903 1.21666 29.1987 1.21883 29.207 1.22124C30.7639 1.67138 32.0973 2.14484 33.2076 2.64075C33.4857 2.76497 33.7499 2.89045 34 3.01755C34.5491 3.29211 35.0177 3.53322 35.4059 3.74071C35.8207 3.96243 36.0281 4.07329 36.1706 4.31461C36.2495 4.44833 36.3073 4.65464 36.3094 4.80991C36.3131 5.09014 36.1821 5.31204 35.92 5.75584L35.4059 6.62669L33.2076 10.3509L31.3811 13.445C30.8484 14.3473 30.5821 14.7984 30.1973 14.9076C29.8124 15.0168 29.3164 14.7557 28.3243 14.2335C28.3099 14.2258 28.2953 14.2182 28.2807 14.2105C27.3684 13.6959 26.3392 13.2398 25.193 12.8421C24.1901 12.4942 23.2231 12.2982 22.2919 12.2547C22.1588 12.2484 22.0264 12.2456 21.8947 12.2456C20.655 12.2456 19.6257 12.4211 18.807 12.7719C17.9883 13.0994 17.5789 13.6725 17.5789 14.4912C17.5789 14.5614 17.5828 14.6308 17.5897 14.6995C17.6383 15.1805 17.8567 15.6257 18.2456 16.0351C18.3012 16.0936 18.3617 16.1524 18.4268 16.2113C18.8822 16.6231 19.5705 17.044 20.4912 17.4737C21.5672 17.9649 23.0292 18.5263 24.8772 19.1579C26.6784 19.7427 28.3275 20.4678 29.8246 21.3333C29.9071 21.3811 29.9889 21.4295 30.0702 21.4782C30.081 21.4846 30.092 21.4907 30.1028 21.4972C31.2705 22.2006 32.3053 23.0074 33.2076 23.9172C33.3708 24.0818 33.5297 24.2497 33.6842 24.4211C34.3474 25.1407 34.9214 25.9241 35.4059 26.7715C35.7245 27.3288 36.0043 27.9138 36.2456 28.5263C36.2836 28.6228 36.3204 28.72 36.3561 28.818C36.8906 30.2887 37.1579 31.9342 37.1579 33.7544C37.1579 33.9153 37.1559 34.0748 37.1517 34.2328C37.0886 36.601 36.5526 38.6404 35.5439 40.3509C35.4988 40.4279 35.4522 40.5037 35.4059 40.5795C35.3845 40.6146 35.3639 40.6502 35.3422 40.685C34.7399 41.6499 34.028 42.5125 33.2076 43.2734C32.6262 43.8126 31.9895 44.3003 31.2982 44.7368C31.1873 44.8069 31.0754 44.8758 30.9628 44.9435C29.2713 45.9606 27.3949 46.7105 25.3333 47.193C25.2072 47.2242 25.0809 47.2545 24.9545 47.2838C24.9446 47.2862 24.9347 47.2887 24.9248 47.291C22.8813 47.7638 20.8069 48 18.7018 48C18.4911 48 18.2819 47.9986 18.0741 47.9958C18.0698 47.9958 18.0655 47.9958 18.0612 47.9958C14.8816 47.9519 12.0306 47.5789 9.50877 46.8772C6.8421 46.1287 4.67836 45.3216 3.01754 44.4561C2.314 44.0742 1.72705 43.7398 1.25669 43.4529C0.709103 43.1188 0.435309 42.9518 0.335419 42.5554C0.235529 42.1589 0.416931 41.8489 0.779734 41.2288L6.63158 31.2281C6.88889 31.4386 7.4386 31.7778 8.2807 32.2456C8.66125 32.4513 9.07345 32.6616 9.51732 32.8763C10.0829 33.15 10.7 33.431 11.3684 33.7193C11.4992 33.7746 11.6305 33.8289 11.7621 33.8826C11.7837 33.8914 11.805 33.9006 11.8265 33.9094C12.8984 34.3442 13.9972 34.7252 15.1228 35.0526C16.2486 35.3597 17.3027 35.5324 18.2852 35.5707C18.4255 35.5762 18.5644 35.5789 18.7018 35.5789C20.0833 35.5789 21.1258 35.3942 21.8289 35.0241C21.8741 35.0002 21.9226 34.9728 21.9649 34.9474C22.6228 34.5526 22.9727 33.9934 23.0138 33.2697C23.0141 33.2637 23.0138 33.2577 23.0141 33.2517C23.0162 33.2094 23.0175 33.1662 23.0175 33.1228C23.0175 32.5614 22.7953 32.0351 22.3509 31.5439C21.9298 31.0526 21.1579 30.538 20.0351 30C19.5852 29.7703 19.057 29.527 18.4504 29.2698C17.5747 28.8986 16.5357 28.4986 15.3333 28.0702C13.3684 27.345 11.4971 26.3977 9.7193 25.2281C7.94152 24.0585 6.49123 22.538 5.36842 20.6667C4.31579 18.9123 3.7566 16.7467 3.6908 14.17C3.69071 14.1664 3.69089 14.1628 3.6908 14.1592C3.6866 13.9909 3.68421 13.8209 3.68421 13.6491C3.68421 10.9738 4.38348 8.65836 5.78144 6.70253C5.87359 6.57376 5.97196 6.44144 6.07018 6.31579C7.56134 4.40798 9.47391 2.92154 11.8079 1.85658C11.9616 1.78656 12.1234 1.7155 12.2807 1.64912C14.8304 0.549708 17.5322 0 20.386 0Z"/>
</svg>
